<?xml version="1.0" encoding="UTF-8"?>
<svg width="124px" height="58px" viewBox="0 0 124 58" version="1.1" xmlns="http://www.w3.org/2000/svg" xmlns:xlink="http://www.w3.org/1999/xlink">
    <!-- Generator: Sketch 52.5 (67469) - http://www.bohemiancoding.com/sketch -->
    <title>car</title>
    <desc>Created with Sketch.</desc>
    <g id="Page-1" stroke="none" stroke-width="1" fill="none" fill-rule="evenodd">
        <g id="1" transform="translate(-126.000000, -549.000000)">
            <g id="car" transform="translate(126.000000, 549.000000)">
                <g transform="translate(61.811321, 29.000000) scale(-1, 1) translate(-61.811321, -29.000000) translate(0.311321, 0.000000)">
                    <polygon id="Fill-165" fill="#181918" points="7.73889632 45.869281 96.9597918 45.869281 96.9597918 34.1176471 7.73889632 34.1176471"></polygon>
                    <polygon id="Fill-167" fill="#242624" points="69.7896426 49.6601307 97.6941202 49.6601307 97.6941202 39.8039216 69.7896426 39.8039216"></polygon>
                    <path d="M0.395612735,43.1828449 L12.2984238,44.3529412 C12.2984238,44.3529412 14.504463,35.8023462 18.8220865,35.8023462 C22.2849756,35.8023462 29.7687471,35.8912679 29.7687471,35.8912679 L29.7687471,9.09803922 C29.7687471,9.09803922 13.0507866,9.72952423 10.2466245,9.72952423 C7.44218937,9.72952423 0.395612735,27.3434958 0.395612735,27.3434958 L0.395612735,43.1828449" id="Fill-168" fill="#F2F1F0"></path>
                    <polyline id="Fill-169" fill="#242624" points="57.3060605 48.1437908 2.25834302 48.1437908 0.0284485563 45.4262586 0.0284485563 39.8039216 57.3060605 39.8039216 57.3060605 48.1437908"></polyline>
                    <path d="M3.33292617,36.1172967 C3.33292617,36.8964422 2.68449877,37.5294118 1.88495542,37.5294118 L1.4764193,37.5294118 C0.676593228,37.5294118 0.0284485563,36.8964422 0.0284485563,36.1172967 L0.0284485563,31.7389125 C0.0284485563,30.9583879 0.676593228,30.3267974 1.4764193,30.3267974 L1.88495542,30.3267974 C2.68449877,30.3267974 3.33292617,30.9583879 3.33292617,31.7389125 L3.33292617,36.1172967" id="Fill-170" fill="#F8C452"></path>
                    <path d="M13.0696575,11.7636706 C15.3994473,11.9433605 24.6284486,11.7636706 24.6284486,11.7636706 L24.6284486,21.5508076 L7.12754083,25.7777778 C7.12754083,25.7777778 4.83103175,25.5904234 5.75511852,23.6172412 C6.6792053,21.6434913 9.65878841,13.4697309 9.65878841,13.4697309 C9.65878841,13.4697309 10.740004,11.5842646 13.0696575,11.7636706" id="Fill-171" fill="#C7D4F1"></path>
                    <polygon id="Fill-172" fill="#242624" points="20.9568068 31.4640523 24.6284486 31.4640523 24.6284486 29.5686275 20.9568068 29.5686275"></polygon>
                    <polyline id="Fill-173" fill="#0DBACE" points="92.1866575 37.5294118 33.4403889 37.5294118 33.4403889 0.758169935 79.9857199 0.758169935 92.1866575 37.5294118"></polyline>
                    <polyline id="Fill-174" fill="#0DBACE" points="116.365751 44.3529412 96.4432797 44.3529412 82.2732247 2.2745098 105.116823 5.43956888 122.661284 32.0098973 116.365751 44.3529412"></polyline>
                    <polyline id="Fill-175" fill="#0AA8BA" points="35.6433739 35.254902 91.085165 35.254902 80.7276633 3.79084967 35.6433739 3.79084967 35.6433739 35.254902"></polyline>
                    <polyline id="Fill-176" fill="#0AA8BA" points="113.995163 40.9411765 98.1887857 40.9411765 85.9448665 5.30718954 104.068466 7.85001577 118.989643 31.0257623 113.995163 40.9411765"></polyline>
                    <path d="M34.5418814,47.7647059 C34.5418814,53.4172404 30.1032785,58 24.6281787,58 C19.1532139,58 14.7150157,53.4172404 14.7150157,47.7647059 C14.7150157,42.1121714 19.1532139,37.5294118 24.6281787,37.5294118 C30.1032785,37.5294118 34.5418814,42.1121714 34.5418814,47.7647059" id="Fill-177" fill="#4D4E4C"></path>
                    <path d="M30.1359112,47.5751634 C30.1359112,50.8202452 27.5878586,53.4509804 24.4447993,53.4509804 C21.3018743,53.4509804 18.7538217,50.8202452 18.7538217,47.5751634 C18.7538217,44.3300816 21.3018743,41.6993464 24.4447993,41.6993464 C27.5878586,41.6993464 30.1359112,44.3300816 30.1359112,47.5751634" id="Fill-178" fill="#FBE7EB"></path>
                    <g id="Group-5" transform="translate(50.684483, 10.943396)" fill="#F2F1F0">
                        <g id="Group-4" transform="translate(0.684515, 0.035763)">
                            <path d="M12.0496608,0.233569462 C10.6370713,0.16503466 9.86407762,1.64951756 9.86407762,1.64951756 C9.86407762,1.64951756 8.33000071,4.37288043 7.56653542,5.73653194 C7.37954002,6.07001226 7.19016252,6.40170159 7.00316712,6.73518191 C6.98411026,6.7699269 6.96981762,6.77482224 6.93527707,6.75524087 C5.84784522,6.14881534 4.76041338,5.54334499 3.67417259,4.93775525 C3.41333188,4.79256654 3.15249116,4.64642264 2.89045939,4.50302491 C2.85115462,4.48093617 2.8440083,4.46529495 2.86663832,4.42314725 C3.32757602,3.59093894 3.78851373,2.75944703 4.24468722,1.92461196 C4.43287367,1.57895299 4.6293975,1.23878635 4.87475452,0.929902148 C5.12844891,0.610749667 5.4154928,0.328849552 5.78591044,0.146886072 C5.98124322,0.0510089891 6.18372231,-0.00522775563 6.40644931,0.000383978987 C6.93646812,0.0128014343 7.46767798,0.00898067882 7.99769679,0.0187713647 C8.3097528,0.0246218966 8.62061777,0.0194877564 8.93148273,0.0290396451 C9.25783139,0.0390691282 9.58418005,0.0304724284 9.90933765,0.0402631143 C10.2094831,0.0488598141 10.5108197,0.0421734921 10.8109651,0.0508895905 C11.9984455,0.0449196601 12.0496608,0.233569462 12.0496608,0.233569462" id="Fill-179"></path>
                            <path d="M11.3291745,7.07886947 C12.458123,6.79653665 14.4776602,6.47681509 14.8156333,6.22767674 L14.818005,6.22587921 L14.8203768,6.22336266 C15.08364,5.89561212 15.5034381,3.87302576 15.8402252,2.74896722 C15.8817307,2.60851982 15.8449687,2.3503938 15.5947501,2.5217588 C15.3540184,2.6860535 15.1168443,2.85490195 14.8796703,3.02255204 C14.8440942,3.04747786 14.8263061,3.04532082 14.7966593,3.0150024 C14.1302002,2.34643922 13.464927,1.67883473 12.7984678,1.01182942 C12.2897295,0.503246855 11.47978,0.573949898 10.8963318,0.912845159 C10.6603436,1.05017683 10.2950956,1.28757128 9.87173985,1.99304384 C9.44719827,2.69827673 9.19579376,3.21524779 9.19579376,3.21524779 C9.82074742,3.92227822 11.0196623,5.33286383 11.6458019,6.0386959 C11.6742628,6.07069202 11.6754486,6.08914672 11.6493595,6.12377922 C11.4714789,6.35470255 11.2924125,6.58514653 11.1169037,6.81894592 C10.9354655,7.06305117 11.1880559,7.11410116 11.3291745,7.07886947" id="Fill-180"></path>
                            <path d="M0.331180394,11.9222222 C0.938472933,13.2160835 2.55407851,13.1689013 2.55407851,13.1689013 C2.55407851,13.1689013 5.57325584,13.186777 7.08284451,13.1918844 C7.45159899,13.1928572 7.82035348,13.1973566 8.18910796,13.1983294 C8.22828812,13.1985726 8.23865934,13.2085441 8.23865934,13.2494029 C8.23865934,14.5195514 8.24096406,15.789092 8.24211642,17.0586326 C8.24326877,17.3638574 8.24211642,17.6678661 8.24442113,17.9730909 C8.24557349,18.0193002 8.23520227,18.0338927 8.18910796,18.0338927 C7.27067882,18.0351087 6.35224969,18.0363247 5.43382055,18.0436209 C5.05354249,18.0472691 4.67441679,18.0411889 4.2975958,17.975523 C3.90925124,17.907425 3.53703968,17.7906857 3.20861772,17.5511268 C3.03576406,17.4246591 2.89287169,17.2714387 2.79261657,17.0707929 C2.55407851,16.5916751 2.30055981,16.1198535 2.05856468,15.6419518 C1.91682467,15.3610477 1.7658658,15.0862238 1.62758287,14.8041036 C1.4823858,14.5086071 1.32105571,14.2216229 1.17585863,13.9269776 C1.04218513,13.6545857 0.894683338,13.3898549 0.761009838,13.1177063 C0.196354536,12.061215 0.331180394,11.9222222 0.331180394,11.9222222" id="Fill-181"></path>
                            <path d="M5.93906667,9.11356335 C5.17270211,8.25583319 3.95499578,6.62900859 3.5884238,6.45233606 L3.58498718,6.45089873 L3.58269611,6.45041961 C3.18519461,6.37747482 1.29849441,6.99169633 0.202215054,7.24143343 C0.0647505582,7.27281526 -0.133427423,7.43116176 0.127755119,7.56890645 C0.377482286,7.70078201 0.630646065,7.82738734 0.881518769,7.95554978 C0.919321506,7.97459448 0.926194731,7.99172274 0.914739356,8.03304614 C0.669594339,8.94539506 0.425594859,9.85810331 0.181595379,10.7708116 C-0.00398168958,11.4666019 0.437050234,12.1469408 0.993781441,12.496453 C1.21945232,12.6380306 1.58946092,12.8445278 2.3775907,12.8749514 C3.16686601,12.905375 3.71672399,12.8765086 3.71672399,12.8765086 C4.01227266,11.9808088 4.62742627,10.2368413 4.9218294,9.34042285 C4.93443031,9.2999379 4.9493223,9.28963699 4.99056165,9.29634456 C5.26778172,9.34090197 5.54385624,9.38677694 5.82107631,9.42702234 C6.11089729,9.46918419 6.03414628,9.22076465 5.93906667,9.11356335" id="Fill-182"></path>
                            <path d="M15.403395,16.4316261 C16.3160949,15.3951758 15.6823712,13.8796315 15.6823712,13.8796315 C15.6823712,13.8796315 14.5917234,11.0111788 14.0429554,9.57824506 C13.9086335,9.22770862 13.7766078,8.87623209 13.6422859,8.52604819 C13.6285093,8.48973717 13.6331015,8.47575332 13.6698391,8.46129942 C14.7834478,8.00923315 15.8982046,7.55599176 17.0118133,7.10286789 C17.279309,6.99416986 17.5468047,6.88652944 17.8131524,6.77571621 C17.8544822,6.75891208 17.8705549,6.76337752 17.8877757,6.80732677 C18.2253024,7.6772635 18.5628292,8.54778779 18.9060962,9.41607936 C19.0484544,9.77554667 19.1827763,10.1371292 19.2619918,10.5172785 C19.3446514,10.9100015 19.380241,11.3046047 19.289545,11.7012056 C19.2413269,11.9100233 19.1598153,12.0993342 19.0197532,12.2662003 C18.6868186,12.6635063 18.3665126,13.0712708 18.0347261,13.4698694 C17.8407056,13.7043046 17.6547215,13.9450854 17.4572568,14.1765828 C17.2517558,14.4198314 17.0588834,14.674831 16.8533824,14.9169045 C16.6628061,15.1401761 16.4848583,15.3751989 16.29543,15.5984705 C15.5744544,16.5103588 15.403395,16.4316261 15.403395,16.4316261" id="Fill-183"></path>
                            <path d="M10.7674476,12.0863123 C10.2639429,13.1266724 9.21857135,14.8742329 9.19579376,15.2877454 L9.19579376,15.2936192 C9.28210884,15.6989085 10.5792328,17.2765999 11.2337888,18.2328477 C11.3165075,18.3514977 11.5406869,18.4830698 11.567061,18.1846829 C11.5946339,17.8992183 11.6150138,17.6125789 11.6365926,17.3259395 C11.640189,17.2836484 11.6533761,17.2707262 11.6965336,17.2660272 C12.6400054,17.1708723 13.5834773,17.0745426 14.5269491,16.9770383 C15.2450427,16.9030289 15.7089863,16.2381195 15.8192778,15.5802586 C15.864833,15.31359 15.9139846,14.8871551 15.6394547,14.1235666 C15.3637259,13.3616227 15.1251606,12.8474339 15.1251606,12.8474339 C14.1780923,12.8879628 12.3175227,12.9317811 11.3704544,12.974542 C11.3272968,12.9763041 11.3117122,12.9660838 11.3021216,12.9241452 C11.2373853,12.6443193 11.1738478,12.3641411 11.1043162,12.0851376 C11.0311882,11.7936817 10.8297863,11.9567372 10.7674476,12.0863123" id="Fill-184"></path>
                        </g>
                    </g>
                    <polyline id="Fill-185" fill="#0AA8BA" points="81.1717321 4.92810458 35.6433739 4.92810458 35.6433739 3.79084967 80.785657 3.79084967 81.1717321 4.92810458"></polyline>
                    <polyline id="Fill-189" fill="#0AA8BA" points="95.8582993 40.1830065 94.9481903 40.1830065 94.7838273 39.6978194 93.576235 36.1085531 82.2732247 2.2745098 83.1996341 2.40300749 95.8582993 40.1830065"></polyline>
                    <polyline id="Fill-190" fill="#0DBACE" points="81.5683338 0 79.3359112 0 92.15722 37.9084967 94.3896426 37.9084967 81.5683338 0"></polyline>
                    <path d="M12.3095102,48.1437908 L0.57161486,48.1437908 L0.0284485563,45.4262586 L0.0284485563,39.8039216 L13.9806874,39.8039216 C12.5482498,43.1498571 12.3095102,48.1437908 12.3095102,48.1437908" id="Fill-191" fill="#242624"></path>
                    <path d="M12.4953869,45.869281 C12.7230011,44.1066018 13.1613591,41.6959201 13.9806874,39.8039216 L4.80158288,39.8039216 L4.80158288,45.869281 L12.4953869,45.869281" id="Fill-192" fill="#181918"></path>
                    <polygon id="Fill-193" fill="#242624" points="5.16874706 43.2156863 13.246359 43.2156863 13.246359 42.4575163 5.16874706 42.4575163"></polygon>
                    <path d="M94.3272383,44.7320261 L73.1565245,44.7320261 C72.7172301,44.7320261 72.3597918,44.3934764 72.3597918,43.9745048 C72.3597918,43.5555332 72.7172301,43.2156863 73.1565245,43.2156863 L94.3272383,43.2156863 C94.7678969,43.2156863 95.1239709,43.5555332 95.1239709,43.9745048 C95.1239709,44.3934764 94.7678969,44.7320261 94.3272383,44.7320261" id="Fill-194" fill="#202120"></path>
                    <path d="M94.3896426,47.7647059 C94.3896426,53.4172404 89.9512954,58 84.4755352,58 C79.0011241,58 74.5627769,53.4172404 74.5627769,47.7647059 C74.5627769,42.1121714 79.0011241,37.5294118 84.4755352,37.5294118 C89.9512954,37.5294118 94.3896426,42.1121714 94.3896426,47.7647059" id="Fill-195" fill="#4D4E4C"></path>
                    <path d="M90.3508366,47.5751634 C90.3508366,50.8202452 87.8028281,53.4509804 84.6597918,53.4509804 C81.5167555,53.4509804 78.9687471,50.8202452 78.9687471,47.5751634 C78.9687471,44.3300816 81.5167555,41.6993464 84.6597918,41.6993464 C87.8028281,41.6993464 90.3508366,44.3300816 90.3508366,47.5751634" id="Fill-196" fill="#FBE7EB"></path>
                    <path d="M56.9388963,44.7320261 L36.4328779,44.7320261 C35.9962921,44.7320261 35.6433739,44.3934764 35.6433739,43.9745048 C35.6433739,43.5555332 35.9962921,43.2156863 36.4328779,43.2156863 L56.9388963,43.2156863 L56.9388963,44.7320261" id="Fill-197" fill="#202120"></path>
                    <path d="M91.085165,35.254902 L73.8284486,35.254902 C75.3505047,34.5630633 76.8617661,33.8138049 78.3649315,32.9945223 C81.7679684,31.1346808 84.0969302,27.9737905 85.5299299,24.34836 C85.977911,23.2191505 86.2464297,22.0421845 86.358425,20.8496732 L91.085165,35.254902" id="Fill-198" fill="#079EB0"></path>
                </g>
            </g>
        </g>
    </g>
</svg>